P3
# CREATOR: GIMP PNM Filter Version 1.1
16 16
255
221
221
0
220
220
0
219
219
0
217
217
0
216
216
0
214
214
0
212
212
0
211
211
0
210
210
0
208
208
0
206
206
0
205
205
0
203
203
0
201
201
0
200
199
0
198
199
0
220
220
0
219
218
0
217
217
0
216
216
0
214
214
0
212
213
0
211
211
0
210
209
0
207
208
0
206
206
0
204
205
0
203
203
0
201
201
0
199
200
0
199
198
0
197
197
0
219
218
0
218
217
0
216
216
0
214
214
0
213
213
0
211
211
0
209
209
0
208
208
0
206
206
0
204
205
0
203
203
0
201
202
0
200
199
0
198
198
0
197
197
0
195
195
0
217
217
0
215
215
0
214
214
0
213
212
0
211
211
0
209
209
0
208
207
0
207
206
0
205
205
0
203
203
0
201
201
0
200
200
0
198
199
0
197
197
0
195
196
0
194
193
0
215
216
0
214
214
0
213
213
0
210
211
0
209
210
0
208
207
0
206
206
0
205
204
0
203
203
0
202
202
0
200
200
0
198
198
0
197
197
0
195
195
0
194
193
0
192
192
0
214
214
0
213
213
0
211
211
0
209
209
0
208
208
0
206
206
0
205
205
0
203
203
0
201
201
0
200
200
0
198
198
0
196
196
0
195
195
0
194
194
0
192
192
0
190
190
0
212
212
0
211
210
0
209
210
0
208
207
0
207
206
0
204
204
0
203
203
0
201
202
0
200
200
0
199
199
0
197
197
0
195
196
0
194
194
0
192
192
0
191
190
0
189
188
0
211
211
0
210
209
0
208
208
0
207
206
0
204
204
0
203
203
0
201
202
0
200
200
0
199
198
0
196
197
0
195
195
0
194
194
0
192
192
0
190
190
0
189
188
0
188
187
0
209
210
0
207
207
0
206
206
0
204
205
0
203
203
0
202
201
0
200
200
0
198
198
0
197
197
0
195
195
0
194
194
0
192
192
0
191
190
0
189
189
0
188
187
0
186
186
0
208
208
0
206
206
0
205
204
0
203
203
0
201
201
0
200
200
0
198
198
0
196
197
0
195
196
0
193
194
0
192
192
0
191
190
0
189
189
0
187
187
0
186
185
0
184
184
0
206
206
0
204
205
0
203
203
0
202
201
0
200
200
0
198
199
0
197
197
0
195
196
0
194
194
0
192
192
0
191
190
0
189
188
0
187
187
0
185
186
0
185
184
0
182
182
0
204
204
0
203
203
0
202
201
0
200
200
0
198
198
0
197
196
0
195
195
0
193
193
0
192
192
0
191
191
0
189
189
0
187
187
0
185
186
0
184
184
0
183
183
0
181
181
0
203
203
0
201
201
0
200
200
0
198
199
0
197
197
0
195
195
0
194
194
0
192
192
0
190
190
0
189
189
0
188
187
0
186
185
0
184
184
0
183
183
0
181
181
0
179
180
0
202
201
0
200
200
0
199
199
0
197
196
0
195
195
0
194
193
0
192
192
0
191
190
0
189
189
0
188
187
0
186
186
0
184
184
0
183
182
0
181
181
0
180
179
0
178
178
0
200
200
0
199
198
0
197
197
0
195
195
0
194
193
0
192
192
0
190
191
0
189
189
0
188
188
0
186
186
0
184
184
0
183
183
0
181
181
0
180
179
0
178
178
0
176
176
0
198
199
0
196
197
0
195
195
0
194
194
0
192
192
0
190
190
0
189
189
0
187
188
0
186
185
0
184
185
0
182
182
0
181
181
0
180
179
0
178
178
0
176
176
0
175
174
0
