P3
# CREATOR: GIMP PNM Filter Version 1.1
16 16
255
221
221
0
220
220
0
219
219
0
217
217
0
216
216
0
214
214
0
212
212
0
211
211
0
210
210
0
208
208
0
206
206
0
205
205
0
203
203
0
201
201
0
200
199
0
198
199
0
220
220
0
219
218
0
217
217
0
216
216
0
214
214
0
212
213
0
211
211
0
210
209
0
207
208
0
206
206
0
204
205
0
203
203
0
201
201
0
199
200
0
199
198
0
197
197
0
219
218
0
218
217
0
216
216
0
214
214
0
213
213
0
211
211
0
209
209
0
160
160
0
206
206
0
204
205
0
203
203
0
201
202
0
200
199
0
198
198
0
197
197
0
195
195
0
217
217
0
215
215
0
214
214
0
213
212
0
211
211
0
209
209
0
208
207
0
58
57
0
172
172
0
203
203
0
201
201
0
200
200
0
198
199
0
197
197
0
195
196
0
194
193
0
215
216
0
214
214
0
213
213
0
210
211
0
209
210
0
208
207
0
192
192
0
4
4
0
103
103
0
202
202
0
200
200
0
198
198
0
197
197
0
195
195
0
194
193
0
192
192
0
214
214
0
213
213
0
211
211
0
209
209
0
208
208
0
206
206
0
128
128
0
0
0
0
35
35
0
200
200
0
198
198
0
196
196
0
195
195
0
194
194
0
192
192
0
190
190
0
212
212
0
211
210
0
129
129
0
64
64
0
64
64
0
63
63
0
25
25
0
0
0
0
0
0
0
59
59
0
61
61
0
60
61
0
76
76
0
177
177
0
191
190
0
189
188
0
211
211
0
210
209
0
208
208
0
117
116
0
5
5
0
0
0
0
0
0
0
0
0
0
0
0
0
0
0
0
0
0
0
49
49
0
172
172
0
190
190
0
189
188
0
188
187
0
209
210
0
207
207
0
206
206
0
204
205
0
164
164
0
29
28
0
0
0
0
0
0
0
0
0
0
2
2
0
100
100
0
190
190
0
191
190
0
189
189
0
188
187
0
186
186
0
208
208
0
206
206
0
205
204
0
203
203
0
201
201
0
64
64
0
0
0
0
0
0
0
0
0
0
1
1
0
169
169
0
191
190
0
189
189
0
187
187
0
186
185
0
184
184
0
206
206
0
204
205
0
203
203
0
202
201
0
192
192
0
8
8
0
0
0
0
58
58
0
13
13
0
0
0
0
106
105
0
189
188
0
187
187
0
185
186
0
185
184
0
182
182
0
204
204
0
203
203
0
202
201
0
200
200
0
134
134
0
9
9
0
122
122
0
193
193
0
170
170
0
46
46
0
42
42
0
187
187
0
185
186
0
184
184
0
183
183
0
181
181
0
203
203
0
201
201
0
200
200
0
198
199
0
109
109
0
167
167
0
194
194
0
192
192
0
190
190
0
187
187
0
97
96
0
168
167
0
184
184
0
183
183
0
181
181
0
179
180
0
202
201
0
200
200
0
199
199
0
197
196
0
195
195
0
194
193
0
192
192
0
191
190
0
189
189
0
188
187
0
186
186
0
184
184
0
183
182
0
181
181
0
180
179
0
178
178
0
200
200
0
199
198
0
197
197
0
195
195
0
194
193
0
192
192
0
190
191
0
189
189
0
188
188
0
186
186
0
184
184
0
183
183
0
181
181
0
180
179
0
178
178
0
176
176
0
198
199
0
196
197
0
195
195
0
194
194
0
192
192
0
190
190
0
189
189
0
187
188
0
186
185
0
184
185
0
182
182
0
181
181
0
180
179
0
178
178
0
176
176
0
175
174
0
