P3
# CREATOR: GIMP PNM Filter Version 1.1
16 16
255
221
221
0
221
221
0
219
218
0
216
215
0
214
214
0
211
211
0
209
209
0
207
206
0
205
204
0
203
202
0
200
200
0
198
198
0
196
196
0
193
194
0
191
191
0
189
188
0
220
221
0
218
218
0
216
216
0
214
213
0
211
212
0
209
209
0
207
206
0
205
205
0
202
203
0
200
199
0
198
197
0
195
196
0
193
193
0
191
191
0
189
189
0
187
186
0
218
218
0
216
216
0
214
214
0
211
211
0
209
209
0
207
207
0
205
204
0
155
156
0
200
200
0
198
197
0
196
196
0
194
193
0
191
191
0
189
188
0
186
186
0
184
184
0
216
216
0
214
213
0
211
211
0
209
209
0
207
207
0
204
205
0
203
203
0
56
56
0
166
166
0
196
195
0
194
193
0
191
191
0
189
188
0
187
186
0
184
184
0
182
182
0
214
214
0
212
211
0
209
209
0
207
207
0
205
205
0
203
202
0
187
186
0
4
4
0
99
99
0
193
193
0
191
191
0
189
188
0
187
187
0
185
184
0
182
182
0
180
180
0
212
211
0
209
209
0
207
207
0
205
205
0
202
203
0
200
200
0
123
123
0
0
0
0
34
34
0
191
191
0
189
188
0
187
186
0
184
184
0
183
181
0
180
179
0
177
177
0
209
209
0
207
207
0
126
126
0
63
63
0
62
62
0
61
61
0
25
24
0
0
0
0
0
0
0
56
56
0
58
58
0
57
57
0
71
71
0
166
166
0
178
177
0
176
175
0
207
207
0
205
205
0
203
203
0
113
113
0
5
5
0
0
0
0
0
0
0
0
0
0
0
0
0
0
0
0
0
0
0
46
46
0
162
161
0
178
178
0
175
175
0
173
173
0
205
204
0
203
202
0
200
200
0
198
197
0
158
158
0
27
27
0
0
0
0
0
0
0
0
0
0
1
1
0
94
94
0
179
179
0
178
177
0
176
174
0
173
173
0
171
171
0
202
202
0
200
200
0
198
198
0
196
195
0
194
193
0
61
61
0
0
0
0
0
0
0
0
0
0
1
1
0
158
159
0
178
178
0
176
175
0
173
173
0
171
170
0
168
168
0
200
200
0
198
197
0
196
195
0
193
193
0
184
184
0
7
7
0
0
0
0
55
55
0
12
12
0
0
0
0
98
98
0
176
175
0
173
172
0
171
170
0
169
168
0
167
165
0
198
198
0
195
196
0
193
193
0
191
190
0
127
127
0
9
9
0
116
115
0
182
181
0
160
159
0
43
42
0
39
38
0
173
173
0
171
170
0
169
168
0
166
166
0
164
163
0
196
195
0
193
193
0
191
191
0
189
189
0
103
103
0
157
157
0
182
182
0
180
180
0
177
178
0
174
173
0
89
89
0
154
154
0
169
168
0
166
166
0
164
163
0
162
162
0
193
194
0
191
191
0
189
189
0
187
187
0
185
184
0
183
182
0
180
179
0
178
177
0
176
175
0
173
172
0
171
170
0
168
168
0
167
166
0
165
163
0
162
161
0
160
159
0
191
190
0
189
189
0
186
186
0
185
184
0
182
181
0
180
179
0
178
177
0
175
175
0
173
172
0
171
170
0
169
168
0
167
166
0
164
164
0
162
161
0
160
159
0
157
157
0
189
188
0
187
186
0
184
184
0
182
182
0
180
180
0
178
177
0
175
175
0
173
172
0
171
170
0
169
168
0
167
166
0
164
164
0
162
161
0
160
159
0
158
157
0
155
155
0
