P3
# CREATOR: GIMP PNM Filter Version 1.1
16 16
255
0
166
221
0
165
221
0
164
218
0
162
216
0
161
213
0
159
211
0
156
209
0
155
207
0
153
205
0
152
203
0
150
200
0
148
198
0
147
195
0
145
194
0
143
192
0
142
188
0
165
220
0
164
218
0
162
216
0
160
214
0
159
212
0
156
209
0
155
207
0
154
205
0
152
202
0
150
200
0
149
198
0
146
196
0
145
193
0
143
191
0
142
189
0
140
186
0
163
218
0
162
216
0
160
213
0
159
211
0
156
210
0
155
207
0
153
204
0
152
202
0
150
200
0
149
198
0
147
196
0
145
194
0
143
192
0
142
189
0
140
187
0
138
185
0
162
216
0
160
214
0
158
211
0
157
209
0
155
207
0
153
205
0
152
203
0
150
200
0
148
198
0
147
195
0
145
193
0
144
191
0
142
189
0
140
187
0
139
185
0
136
182
0
161
213
0
159
211
0
157
209
0
155
207
0
154
205
0
152
202
0
150
200
0
148
197
0
147
196
0
145
193
0
143
191
0
141
189
0
140
186
0
138
184
0
136
182
0
135
179
0
158
212
0
157
209
0
155
207
0
153
205
0
152
203
0
150
201
0
149
198
0
147
196
0
145
193
0
143
191
0
142
188
0
140
187
0
138
185
0
137
182
0
135
180
0
133
178
0
156
210
0
155
207
0
154
205
0
152
202
0
150
200
0
148
198
0
147
196
0
145
193
0
143
191
0
141
189
0
140
187
0
138
185
0
136
182
0
135
180
0
133
178
0
132
175
0
155
207
0
154
204
0
152
203
0
150
201
0
149
198
0
147
196
0
145
193
0
143
191
0
142
189
0
140
187
0
139
184
0
137
182
0
135
180
0
133
178
0
132
175
0
130
173
0
153
204
0
152
202
0
150
200
0
149
198
0
147
195
0
145
193
0
144
191
0
141
189
0
140
187
0
138
185
0
136
182
0
135
180
0
133
178
0
132
175
0
130
173
0
128
171
0
152
202
0
150
200
0
148
198
0
146
196
0
145
193
0
143
191
0
142
189
0
140
187
0
138
184
0
136
182
0
135
180
0
133
178
0
132
175
0
130
174
0
128
171
0
126
168
0
150
200
0
149
198
0
147
195
0
146
193
0
143
191
0
142
189
0
140
186
0
138
184
0
136
182
0
135
180
0
134
178
0
132
176
0
130
174
0
129
171
0
127
169
0
124
167
0
148
198
0
146
196
0
145
194
0
143
191
0
142
189
0
140
186
0
138
185
0
136
182
0
135
180
0
133
178
0
132
176
0
130
173
0
128
171
0
127
169
0
125
167
0
123
164
0
147
196
0
145
193
0
143
191
0
142
189
0
140
187
0
139
185
0
137
182
0
135
180
0
133
178
0
131
176
0
130
173
0
128
171
0
126
169
0
125
166
0
123
164
0
122
162
0
145
193
0
143
191
0
142
189
0
140
187
0
138
185
0
137
182
0
135
180
0
133
178
0
131
176
0
130
173
0
128
171
0
126
169
0
124
167
0
123
164
0
122
162
0
120
159
0
143
191
0
142
189
0
140
187
0
138
184
0
136
182
0
134
180
0
133
178
0
132
175
0
130
174
0
128
171
0
126
168
0
125
166
0
123
164
0
121
162
0
119
159
0
118
157
0
142
189
0
140
186
0
138
185
0
137
182
0
135
180
0
134
177
0
131
176
0
130
173
0
128
171
0
126
169
0
125
167
0
123
164
0
121
162
0
120
160
0
118
157
0
117
155
