P3
# CREATOR: GIMP PNM Filter Version 1.1
48 16
255
0
166
221
0
165
221
0
0
0
0
0
0
0
0
0
0
159
211
0
156
209
0
155
207
0
0
0
0
0
0
0
0
0
0
148
198
0
147
195
0
145
194
0
0
0
0
0
0
0
166
221
0
165
221
0
164
218
0
162
216
0
161
213
0
159
211
0
156
209
0
155
207
0
153
205
0
152
203
0
150
200
0
148
198
0
147
195
0
145
194
0
143
192
0
142
188
0
166
221
0
165
221
0
164
218
0
162
216
0
161
213
0
159
211
0
156
209
0
155
207
0
153
205
0
152
203
0
150
200
0
148
198
0
147
195
0
145
194
0
143
192
0
142
188
0
165
220
0
0
0
0
0
0
0
0
0
0
0
0
0
0
0
0
0
0
0
0
0
0
0
0
0
0
0
0
0
0
0
0
0
0
0
0
0
0
0
0
0
0
0
0
0
0
165
220
0
164
218
0
162
216
0
160
214
0
159
212
0
156
209
0
155
207
0
154
205
0
152
202
0
150
200
0
149
198
0
146
196
0
145
193
0
143
191
0
142
189
0
140
186
0
165
220
0
164
218
0
162
216
0
160
214
0
159
212
0
156
209
0
155
207
0
154
205
0
152
202
0
150
200
0
149
198
0
146
196
0
145
193
0
143
191
0
142
189
0
140
186
0
0
0
0
0
0
0
0
0
0
0
0
0
0
0
0
0
0
0
0
0
0
0
0
0
0
0
0
0
0
0
0
0
0
0
0
0
0
0
0
0
0
0
0
0
0
138
185
0
163
218
0
162
216
0
160
213
0
159
211
0
156
210
0
155
207
0
153
204
0
152
202
0
150
200
0
149
198
0
147
196
0
145
194
0
143
192
0
142
189
0
140
187
0
138
185
0
163
218
0
162
216
0
160
213
0
159
211
0
156
210
0
155
207
0
153
204
0
117
155
0
150
200
0
149
198
0
147
196
0
145
194
0
143
192
0
142
189
0
140
187
0
138
185
0
0
0
0
0
0
0
0
0
0
0
0
0
0
0
0
0
0
0
0
0
0
0
0
0
0
0
0
0
0
0
0
0
0
0
0
0
0
0
0
0
0
0
0
0
0
136
182
0
162
216
0
160
214
0
158
211
0
157
209
0
155
207
0
153
205
0
152
203
0
150
200
0
148
198
0
147
195
0
145
193
0
144
191
0
142
189
0
140
187
0
139
185
0
136
182
0
162
216
0
160
214
0
158
211
0
157
209
0
155
207
0
153
205
0
152
203
0
42
56
0
124
166
0
147
195
0
145
193
0
144
191
0
142
189
0
140
187
0
139
185
0
136
182
0
0
0
0
0
0
0
0
0
0
0
0
0
0
0
0
0
0
0
0
0
0
0
0
0
0
0
0
0
0
0
0
0
0
0
0
0
0
0
0
0
0
0
0
0
0
135
179
0
161
213
0
159
211
0
157
209
0
155
207
0
154
205
0
152
202
0
150
200
0
148
197
0
147
196
0
145
193
0
143
191
0
141
189
0
140
186
0
138
184
0
136
182
0
135
179
0
161
213
0
159
211
0
157
209
0
155
207
0
154
205
0
152
202
0
140
187
0
3
4
0
74
99
0
145
193
0
143
191
0
141
189
0
140
186
0
138
184
0
136
182
0
135
179
0
158
212
0
0
0
0
0
0
0
0
0
0
0
0
0
0
0
0
0
0
0
0
0
0
0
0
0
0
0
0
0
0
0
0
0
0
0
0
0
0
0
0
0
0
0
0
0
0
158
212
0
157
209
0
155
207
0
153
205
0
152
203
0
150
201
0
149
198
0
147
196
0
145
193
0
143
191
0
142
188
0
140
187
0
138
185
0
137
182
0
135
180
0
133
178
0
158
212
0
157
209
0
155
207
0
153
205
0
152
203
0
150
201
0
93
123
0
0
0
0
26
34
0
143
191
0
142
188
0
140
187
0
138
185
0
137
182
0
135
180
0
133
178
0
156
210
0
0
0
0
0
0
0
0
0
0
0
0
0
0
0
0
0
0
0
0
0
0
0
0
0
0
0
0
0
0
0
0
0
0
0
0
0
0
0
0
0
0
0
0
0
0
156
210
0
155
207
0
154
205
0
152
202
0
150
200
0
148
198
0
147
196
0
145
193
0
143
191
0
141
189
0
140
187
0
138
185
0
136
182
0
135
180
0
133
178
0
132
175
0
156
210
0
155
207
0
95
126
0
47
63
0
46
62
0
46
61
0
18
25
0
0
0
0
0
0
0
42
56
0
43
58
0
43
57
0
53
71
0
124
166
0
133
178
0
132
175
0
155
207
0
0
0
0
0
0
0
0
0
0
0
0
0
0
0
0
0
0
0
0
0
0
0
0
0
0
0
0
0
0
0
0
0
0
0
0
0
0
0
0
0
0
0
0
0
0
155
207
0
154
204
0
152
203
0
150
201
0
149
198
0
147
196
0
145
193
0
143
191
0
142
189
0
140
187
0
139
184
0
137
182
0
135
180
0
133
178
0
132
175
0
130
173
0
155
207
0
154
204
0
152
203
0
85
114
0
4
5
0
0
0
0
0
0
0
0
0
0
0
0
0
0
0
0
0
0
0
35
46
0
121
162
0
133
178
0
132
175
0
130
173
0
0
0
0
0
0
0
0
0
0
0
0
0
0
0
0
0
0
0
0
0
0
0
0
0
0
0
0
0
0
0
0
0
0
0
0
0
0
0
0
0
0
0
0
0
0
128
171
0
153
204
0
152
202
0
150
200
0
149
198
0
147
195
0
145
193
0
144
191
0
141
189
0
140
187
0
138
185
0
136
182
0
135
180
0
133
178
0
132
175
0
130
173
0
128
171
0
153
204
0
152
202
0
150
200
0
149
198
0
119
158
0
20
27
0
0
0
0
0
0
0
0
0
0
1
1
0
70
94
0
134
179
0
133
178
0
132
175
0
130
173
0
128
171
0
0
0
0
0
0
0
0
0
0
0
0
0
0
0
0
0
0
0
0
0
0
0
0
0
0
0
0
0
0
0
0
0
0
0
0
0
0
0
0
0
0
0
0
0
0
126
168
0
152
202
0
150
200
0
148
198
0
146
196
0
145
193
0
143
191
0
142
189
0
140
187
0
138
184
0
136
182
0
135
180
0
133
178
0
132
175
0
130
174
0
128
171
0
126
168
0
152
202
0
150
200
0
148
198
0
146
196
0
145
193
0
46
61
0
0
0
0
0
0
0
0
0
0
1
1
0
119
159
0
133
178
0
132
175
0
130
174
0
128
171
0
126
168
0
0
0
0
0
0
0
0
0
0
0
0
0
0
0
0
0
0
0
0
0
0
0
0
0
0
0
0
0
0
0
0
0
0
0
0
0
0
0
0
0
0
0
0
0
0
124
167
0
150
200
0
149
198
0
147
195
0
146
193
0
143
191
0
142
189
0
140
186
0
138
184
0
136
182
0
135
180
0
134
178
0
132
176
0
130
174
0
129
171
0
127
169
0
124
167
0
150
200
0
149
198
0
147
195
0
146
193
0
137
184
0
6
7
0
0
0
0
41
55
0
9
12
0
0
0
0
74
98
0
132
176
0
130
174
0
129
171
0
127
169
0
124
167
0
148
198
0
0
0
0
0
0
0
0
0
0
0
0
0
0
0
0
0
0
0
0
0
0
0
0
0
0
0
0
0
0
0
0
0
0
0
0
0
0
0
0
0
0
0
0
0
0
148
198
0
146
196
0
145
194
0
143
191
0
142
189
0
140
186
0
138
185
0
136
182
0
135
180
0
133
178
0
132
176
0
130
173
0
128
171
0
127
169
0
125
167
0
123
164
0
148
198
0
146
196
0
145
194
0
143
191
0
96
127
0
7
9
0
87
116
0
136
182
0
120
160
0
32
43
0
29
39
0
130
173
0
128
171
0
127
169
0
125
167
0
123
164
0
147
196
0
0
0
0
0
0
0
0
0
0
0
0
0
0
0
0
0
0
0
0
0
0
0
0
0
0
0
0
0
0
0
0
0
0
0
0
0
0
0
0
0
0
0
0
0
0
147
196
0
145
193
0
143
191
0
142
189
0
140
187
0
139
185
0
137
182
0
135
180
0
133
178
0
131
176
0
130
173
0
128
171
0
126
169
0
125
166
0
123
164
0
122
162
0
147
196
0
145
193
0
143
191
0
142
189
0
77
103
0
119
158
0
137
182
0
135
180
0
133
178
0
129
174
0
67
89
0
115
154
0
126
169
0
125
166
0
123
164
0
122
162
0
145
193
0
0
0
0
0
0
0
0
0
0
0
0
0
0
0
0
0
0
0
0
0
0
0
0
0
0
0
0
0
0
0
0
0
0
0
0
0
0
0
0
0
0
0
0
0
0
145
193
0
143
191
0
142
189
0
140
187
0
138
185
0
137
182
0
135
180
0
133
178
0
131
176
0
130
173
0
128
171
0
126
169
0
124
167
0
123
164
0
122
162
0
120
159
0
145
193
0
143
191
0
142
189
0
140
187
0
138
185
0
137
182
0
135
180
0
133
178
0
131
176
0
130
173
0
128
171
0
126
169
0
124
167
0
123
164
0
122
162
0
120
159
0
0
0
0
0
0
0
0
0
0
0
0
0
0
0
0
0
0
0
0
0
0
0
0
0
0
0
0
0
0
0
0
0
0
0
0
0
0
0
0
0
0
0
0
0
0
118
157
0
143
191
0
142
189
0
140
187
0
138
184
0
136
182
0
134
180
0
133
178
0
132
175
0
130
174
0
128
171
0
126
168
0
125
166
0
123
164
0
121
162
0
119
159
0
118
157
0
143
191
0
142
189
0
140
187
0
138
184
0
136
182
0
134
180
0
133
178
0
132
175
0
130
174
0
128
171
0
126
168
0
125
166
0
123
164
0
121
162
0
119
159
0
118
157
0
0
0
0
0
0
0
138
185
0
137
182
0
135
180
0
0
0
0
0
0
0
0
0
0
128
171
0
126
169
0
125
167
0
0
0
0
0
0
0
0
0
0
118
157
0
117
155
0
142
189
0
140
186
0
138
185
0
137
182
0
135
180
0
134
177
0
131
176
0
130
173
0
128
171
0
126
169
0
125
167
0
123
164
0
121
162
0
120
160
0
118
157
0
117
155
0
142
189
0
140
186
0
138
185
0
137
182
0
135
180
0
134
177
0
131
176
0
130
173
0
128
171
0
126
169
0
125
167
0
123
164
0
121
162
0
120
160
0
118
157
0
117
155
