P3
# CREATOR: GIMP PNM Filter Version 1.1
2 2
255
187
187
187
95
95
95
95
95
95
0
0
0
